<svg width="41" height="39" viewBox="0 0 41 39" fill="none" xmlns="http://www.w3.org/2000/svg">
<path d="M39.4657 23.4878H36.9196C36.2406 23.4878 35.6465 24.1346 35.6465 24.7006V32.7858C35.6465 33.4327 35.0524 33.9986 34.3734 33.9986H6.36544C5.68646 33.9986 5.09235 33.4327 5.09235 32.7858V24.7006C5.09235 24.1346 4.49825 23.4878 3.81927 23.4878H1.27309C0.594108 23.4878 0 24.1346 0 24.7006V35.6157C0 37.3944 1.52771 38.8498 3.3949 38.8498H37.3439C39.2111 38.8498 40.7388 37.3944 40.7388 35.6157V24.7006C40.7388 24.1346 40.1447 23.4878 39.4657 23.4878Z" fill="white"/>
<path d="M21.2181 0.363836C20.7089 -0.121279 19.945 -0.121279 19.4358 0.363836L7.978 11.2789C7.46876 11.764 7.46876 12.4917 7.978 12.9768L9.76032 14.6747C10.2696 15.1598 11.0334 15.1598 11.5426 14.6747L16.2955 10.147C16.8047 9.66188 17.8232 9.98529 17.8232 10.713V27.8537C17.8232 28.5005 18.3324 29.0665 19.0114 29.0665H21.5576C22.2366 29.0665 22.9156 28.4197 22.9156 27.8537V10.7938C22.9156 10.0661 23.7643 9.74273 24.3584 10.2278L29.1113 14.7556C29.6205 15.2407 30.3844 15.2407 30.8936 14.7556L32.6759 13.0577C33.1851 12.5726 33.1851 11.8449 32.6759 11.3598L21.2181 0.363836Z" fill="white"/>
</svg>
