<svg width="86" height="81" viewBox="0 0 86 81" fill="none" xmlns="http://www.w3.org/2000/svg">
<path d="M43 0C19.2533 0 0 18.1358 0 40.5C0 62.8642 19.2533 81 43 81C66.7503 81 86 62.8642 86 40.5C86 18.1358 66.7467 0 43 0ZM41.0614 16.2501C47.9056 15.81 54.9504 17.5874 60.5261 22.7975C65.6359 27.6624 69.5202 34.4435 69.4414 40.7979H77.0847L61.1603 57.5999L45.2324 40.7979H53.5207C53.5171 34.9614 51.9906 31.515 47.1423 26.9989C42.3944 22.4759 37.5856 19.8556 29.3045 19.2022C32.9972 17.5421 36.9834 16.5424 41.0614 16.2535V16.2501ZM24.8468 23.4035L40.7747 40.2055H32.4865C32.4865 46.042 34.013 49.4883 38.8577 54.0045C43.6092 58.5275 48.4144 61.1546 56.6955 61.808C47.0778 66.1007 34.4072 66.5408 25.4847 58.2058C20.3713 53.341 16.4833 46.5599 16.5658 40.2055H8.91533L24.8468 23.4035Z" fill="white"/>
</svg>
