<svg width="109" height="82" viewBox="0 0 109 82" fill="none" xmlns="http://www.w3.org/2000/svg">
<path d="M103.829 0H77.0253C75.4473 0 73.9659 0.79434 73.047 2.13355L70.7049 5.54568C69.7857 6.88489 68.3046 7.67923 66.7266 7.67923H20.913C18.21 7.67923 16.0187 9.9667 16.0187 12.7886V66.796C16.0187 69.6179 18.21 71.9054 20.913 71.9054H91.5198C91.3826 72.4862 91.308 73.0892 91.308 73.709C91.308 78.2601 95.2065 81.9496 100.016 81.9496C104.602 81.9496 108.357 78.5939 108.696 74.3362C108.712 74.2329 108.724 74.1277 108.724 74.0201V66.796V53.1489V21.2922V7.67923V5.10941C108.724 2.28748 106.533 0 103.829 0Z" fill="#BC7520"/>
<path d="M35.2448 25.6336L38.1721 28.3878C39.3211 29.4687 40.9385 30.1098 42.5165 30.1098H88.3304C91.0333 30.1098 93.617 31.9561 94.1013 34.2337L103.369 77.8256C103.853 80.1033 102.054 81.9496 99.3511 81.9496H16.4348C13.7318 81.9496 11.1481 80.1033 10.6638 77.8256L2.85576 41.0976L0.519715 30.1098L0.0787806 28.0356C-0.405514 25.7579 1.39317 23.9116 4.09616 23.9116H30.9004C32.4784 23.9114 34.0961 24.5526 35.2448 25.6336Z" fill="#FFB636"/>
</svg>
