<svg width="86" height="73" viewBox="0 0 86 73" fill="none" xmlns="http://www.w3.org/2000/svg">
<path d="M81.8646 0H60.7309C59.4867 0 58.3187 0.707103 57.5942 1.89924L55.7475 4.93663C55.0228 6.12876 53.855 6.83587 52.6108 6.83587H16.4889C14.3577 6.83587 12.6299 8.87212 12.6299 11.3841V59.4602C12.6299 61.9722 14.3577 64.0085 16.4889 64.0085H72.1592C72.051 64.5255 71.9921 65.0623 71.9921 65.614C71.9921 69.6653 75.0659 72.9496 78.8578 72.9496C82.4737 72.9496 85.4346 69.9624 85.7018 66.1723C85.7147 66.0803 85.7235 65.9867 85.7235 65.891V59.4602V47.3119V18.9538V6.83587V4.54828C85.7235 2.03626 83.996 0 81.8646 0Z" fill="#BC7520"/>
<path d="M27.7889 22.8183L30.097 25.27C31.0029 26.2322 32.2782 26.8028 33.5224 26.8028H69.6445C71.7756 26.8028 73.8128 28.4464 74.1946 30.4739L81.5014 69.2784C81.8832 71.3059 80.465 72.9495 78.3338 72.9495H12.9581C10.8269 72.9495 8.78976 71.3059 8.40791 69.2784L2.25164 36.584L0.409772 26.8028L0.0621149 24.9565C-0.319729 22.9289 1.09845 21.2854 3.22963 21.2854H24.3635C25.6077 21.2852 26.8832 21.856 27.7889 22.8183Z" fill="#FFB636"/>
</svg>
