<svg width="243" height="113" viewBox="0 0 243 113" fill="none" xmlns="http://www.w3.org/2000/svg">
<path d="M0 -10H243V113H0V-10Z" fill="#F37C0E"/>
<path d="M41.3201 12.76V11.8H58.4081V66.328C58.4081 71.384 57.3841 74.776 55.3361 76.504C53.2881 78.168 50.1841 79 46.0241 79C41.9281 79 38.2801 78.392 35.0801 77.176L35.3681 76.408C38.4401 77.624 41.6081 78.232 44.8721 78.232C47.0481 78.232 48.4881 77.304 49.1921 75.448C49.9601 73.592 50.3441 70.584 50.3441 66.424V12.76H41.3201Z" fill="white"/>
<path d="M71.8451 12.568C79.2691 12.056 85.7971 11.8 91.4291 11.8C107.301 11.8 115.237 17.4 115.237 28.6C115.237 33.784 113.893 38.328 111.205 42.232C109.797 44.344 107.621 46.04 104.677 47.32C101.733 48.536 98.1811 49.144 94.0211 49.144H79.8131V79H71.8451V12.568ZM91.5251 12.76C87.8131 12.76 83.9091 12.984 79.8131 13.432V48.184H94.0211C103.045 47.8 107.557 41.336 107.557 28.792C107.557 23.672 106.213 19.736 103.525 16.984C100.837 14.168 96.8371 12.76 91.5251 12.76Z" fill="white"/>
<path d="M127.477 7H135.157V94.744H127.477V7Z" fill="white"/>
<path d="M184.71 79.384C172.742 79.384 163.878 75.992 158.118 69.208C156.07 66.776 154.406 63.544 153.126 59.512C151.846 55.48 151.206 50.584 151.206 44.824C151.206 39.064 152.134 33.912 153.99 29.368C155.91 24.76 158.502 21.208 161.766 18.712C168.102 14.04 175.75 11.704 184.71 11.704C187.27 11.704 189.766 11.928 192.198 12.376C194.63 12.76 196.454 13.176 197.67 13.624L199.398 14.296L199.11 15.256C194.758 13.528 189.958 12.664 184.71 12.664C177.926 12.664 172.262 14.872 167.718 19.288C164.262 22.552 161.83 27.352 160.422 33.688C159.59 37.272 159.174 41.656 159.174 46.84C159.174 52.024 159.91 56.824 161.382 61.24C162.854 65.592 164.518 68.824 166.374 70.936C168.294 73.048 170.598 74.744 173.286 76.024C175.974 77.24 178.118 77.944 179.718 78.136C181.318 78.328 183.238 78.424 185.478 78.424C187.782 78.424 190.374 78.2 193.254 77.752C196.134 77.304 198.31 76.888 199.782 76.504L201.99 75.832L202.278 76.792C197.414 78.52 191.558 79.384 184.71 79.384Z" fill="white"/>
</svg>
