<svg width="35" height="37" viewBox="0 0 35 37" fill="none" xmlns="http://www.w3.org/2000/svg">
<path d="M25.2778 27.1969V21.7575H11.6667V14.505H25.2778V9.06564L35 18.1313L25.2778 27.1969ZM21.3889 0C22.4203 0 23.4094 0.382051 24.1387 1.06211C24.8681 1.74216 25.2778 2.66451 25.2778 3.62626V7.25251H21.3889V3.62626H3.88889V32.6363H21.3889V29.0101H25.2778V32.6363C25.2778 33.5981 24.8681 34.5204 24.1387 35.2005C23.4094 35.8805 22.4203 36.2626 21.3889 36.2626H3.88889C2.85749 36.2626 1.86834 35.8805 1.13903 35.2005C0.409721 34.5204 0 33.5981 0 32.6363V3.62626C0 2.66451 0.409721 1.74216 1.13903 1.06211C1.86834 0.382051 2.85749 0 3.88889 0H21.3889Z" fill="#FFFDFD" fill-opacity="0.99"/>
</svg>
