<svg width="92" height="73" viewBox="0 0 92 73" fill="none" xmlns="http://www.w3.org/2000/svg">
<path fill-rule="evenodd" clip-rule="evenodd" d="M24.7271 13.8198C28.2315 8.08475 36.0724 0 48.0909 0C56.9982 0 63.3545 4.9275 67.3565 10.6306C69.9494 14.3371 71.782 18.6082 72.7302 23.1547C76.0129 23.7341 79.8184 25.1166 83.2056 27.7811C88.2029 31.7002 92 38.2018 92 47.9062C92 57.6061 88.2029 64.1077 83.2056 68.036C78.4216 71.7909 72.8055 73 69 73H50.1818V42.9514L55.5889 48.8507C56.3776 49.6818 57.4339 50.1417 58.5304 50.1313C59.6269 50.1209 60.6757 49.641 61.4511 48.7951C62.2264 47.9492 62.6662 46.8049 62.6757 45.6086C62.6853 44.4123 62.2637 43.2598 61.502 42.3993L48.9565 28.7118C48.1723 27.8565 47.1089 27.376 46 27.376C44.8911 27.376 43.8277 27.8565 43.0435 28.7118L30.498 42.3993C30.0986 42.8202 29.78 43.3236 29.5608 43.8803C29.3417 44.4369 29.2263 45.0356 29.2215 45.6414C29.2167 46.2472 29.3225 46.848 29.5327 47.4087C29.743 47.9694 30.0535 48.4789 30.4462 48.9072C30.8388 49.3356 31.3057 49.6744 31.8196 49.9038C32.3336 50.1332 32.8842 50.2487 33.4395 50.2434C33.9948 50.2381 34.5435 50.1123 35.0537 49.8732C35.5639 49.634 36.0253 49.2865 36.4111 48.8507L41.8182 42.9514V73H27.1818C22.678 73 16.0164 71.5628 10.3625 67.1235C4.49545 62.5108 0 54.8686 0 43.3438C0 31.8189 4.49545 24.1767 10.3625 19.564C15.0629 15.8729 20.4533 14.2578 24.7271 13.8152V13.8198Z" fill="white"/>
</svg>
